<svg width="63" height="63" viewBox="0 0 63 63" fill="none" xmlns="http://www.w3.org/2000/svg">
<circle cx="31.5" cy="31.5" r="31.5" fill="#6A90FF"/>
<path d="M44.0908 20.0188H37.9711V18.7259C37.97 17.77 37.5898 16.8534 36.9136 16.1772C36.2374 15.5014 35.3208 15.1212 34.3646 15.12H29.257C28.3008 15.1211 27.3842 15.5013 26.708 16.1772C26.0319 16.8534 25.6517 17.77 25.6505 18.7259V20.0188H19.5308C18.0274 20.0202 16.586 20.6178 15.5228 21.6807C14.4596 22.7439 13.8614 24.185 13.86 25.6885V30.694C13.8643 31.3038 14.0467 31.8989 14.3848 32.4063C14.7231 32.9137 15.2024 33.3113 15.7636 33.5497V44.9235C15.7644 45.6791 16.0649 46.4036 16.5991 46.938C17.1336 47.4722 17.8581 47.7727 18.6136 47.7736H45.006C45.7625 47.7736 46.4882 47.4736 47.0234 46.9392C47.559 46.4048 47.8603 45.6799 47.8621 44.9235V33.541C48.4227 33.3045 48.9014 32.9086 49.2392 32.4027C49.5767 31.8967 49.7585 31.3024 49.7614 30.694V25.6885C49.7599 24.1851 49.1617 22.744 48.0986 21.6808C47.0354 20.6178 45.594 20.0202 44.0905 20.0188L44.0908 20.0188ZM26.8742 18.7259C26.8751 18.0944 27.1266 17.4889 27.5731 17.0424C28.0199 16.5959 28.6252 16.3446 29.257 16.344H34.3646C34.9964 16.3446 35.6017 16.5959 36.0485 17.0424C36.495 17.4889 36.7465 18.0944 36.7474 18.7259V20.0188H26.8744L26.8742 18.7259ZM45.0065 46.5499H18.6141C18.183 46.5493 17.7695 46.378 17.4647 46.0732C17.16 45.7681 16.9884 45.3549 16.9881 44.9238V33.8334L29.3199 35.6692V37.5142C29.3204 38.0415 29.5302 38.5469 29.903 38.9197C30.2758 39.2925 30.7815 39.5022 31.3085 39.5031H32.4386C32.9659 39.5022 33.4717 39.2925 33.8445 38.9197C34.2173 38.5469 34.427 38.0415 34.4276 37.5142V35.6627L46.6392 33.8334V44.9231C46.6374 45.3548 46.465 45.7685 46.1591 46.0733C45.8531 46.3781 45.4391 46.5492 45.0071 46.5492L45.0065 46.5499ZM30.5431 35.1265V35.1038V33.5224C30.5436 33.1 30.8857 32.758 31.308 32.7574H32.4381C32.8604 32.7583 33.2025 33.1003 33.2031 33.5224V37.5139C33.2025 37.9362 32.8604 38.2783 32.4381 38.2789H31.308C30.886 38.2783 30.5439 37.9362 30.5431 37.5139V35.1265ZM48.5384 30.6939C48.5362 31.0741 48.4189 31.4449 48.2024 31.7577C47.9858 32.0702 47.6799 32.3101 47.3247 32.4458C47.2635 32.4717 47.2006 32.4933 47.1366 32.5101L47.1178 32.5138C47.058 32.5295 46.9977 32.542 46.9365 32.5514L34.427 34.4248V33.5224C34.4264 32.995 34.2167 32.4896 33.8439 32.1168C33.4711 31.744 32.9653 31.5343 32.438 31.5334H31.3079C30.7809 31.5343 30.2752 31.744 29.9024 32.1168C29.5296 32.4896 29.3198 32.9951 29.3193 33.5224V34.4316L16.7973 32.571L16.6852 32.5513H16.6849C16.241 32.4822 15.836 32.2574 15.5429 31.917C15.2495 31.5767 15.0867 31.1432 15.0836 30.6939V25.6884C15.0847 24.5093 15.5534 23.3787 16.3873 22.5452C17.2211 21.7114 18.3514 21.2423 19.5307 21.2415H26.2406H26.2622H37.3592H37.3808H44.0907C45.27 21.2423 46.4003 21.7113 47.2341 22.5452C48.068 23.3787 48.5367 24.5093 48.5379 25.6884L48.5384 30.6939Z" fill="white" stroke="white" stroke-width="0.5"/>
</svg>
