<svg width="42" height="42" viewBox="0 0 42 42" fill="none" xmlns="http://www.w3.org/2000/svg">
<circle cx="21" cy="21" r="21" fill="#6A90FF"/>
<path d="M32.0265 14.7095C31.5549 14.2154 30.9036 13.9235 30.1625 13.9235H26.4347V13.8786C26.4347 13.3171 26.2101 12.7782 25.8283 12.4188C25.4465 12.0371 24.93 11.8125 24.3686 11.8125H17.6314C17.0475 11.8125 16.531 12.0371 16.1492 12.4188C15.7675 12.8006 15.5429 13.3171 15.5429 13.8786V13.9235H11.8375C11.0964 13.9235 10.4451 14.2154 9.9735 14.7095C9.5019 15.1811 9.1875 15.8548 9.1875 16.5734V27.7571C9.1875 28.4982 9.47944 29.1495 9.9735 29.6211C10.4451 30.0927 11.1188 30.4071 11.8375 30.4071H30.1625C30.9036 30.4071 31.5549 30.1151 32.0265 29.6211C32.4981 29.1495 32.8125 28.4758 32.8125 27.7571V16.5734C32.8125 15.8323 32.5206 15.1811 32.0265 14.7095ZM31.6447 27.7571H31.6223C31.6223 28.1614 31.4651 28.5207 31.1956 28.7902C30.9261 29.0597 30.5668 29.2169 30.1625 29.2169H11.8375C11.4332 29.2169 11.0739 29.0597 10.8044 28.7902C10.5349 28.5207 10.3777 28.1614 10.3777 27.7571V16.5734C10.3777 16.1692 10.5349 15.8099 10.8044 15.5404C11.0739 15.2709 11.4332 15.1137 11.8375 15.1137H16.1717C16.5086 15.1137 16.778 14.8442 16.778 14.5074V13.8561C16.778 13.6091 16.8679 13.3845 17.0251 13.2273C17.1823 13.0701 17.4068 12.9803 17.6539 12.9803H24.3686C24.6156 12.9803 24.8402 13.0701 24.9974 13.2273C25.1546 13.3845 25.2444 13.6091 25.2444 13.8561V14.5074C25.2444 14.8442 25.5139 15.1137 25.8508 15.1137H30.185C30.5892 15.1137 30.9486 15.2709 31.218 15.5404C31.4875 15.8099 31.6447 16.1692 31.6447 16.5734V27.7571Z" fill="white" stroke="white" stroke-width="0.5"/>
<path d="M20.9998 16.6407C19.4727 16.6407 18.0804 17.2695 17.0923 18.2577C16.0817 19.2682 15.4753 20.6381 15.4753 22.1652C15.4753 23.6923 16.1041 25.0847 17.0923 26.0728C18.1028 27.0834 19.4727 27.6897 20.9998 27.6897C22.5269 27.6897 23.9193 27.0609 24.9074 26.0728C25.918 25.0622 26.5243 23.6923 26.5243 22.1652C26.5243 20.6381 25.8955 19.2458 24.9074 18.2577C23.9193 17.2695 22.5269 16.6407 20.9998 16.6407ZM24.054 25.2419C23.268 26.0054 22.1901 26.4995 20.9998 26.4995C19.8096 26.4995 18.7316 26.0054 17.9456 25.2419C17.1596 24.4559 16.688 23.3779 16.688 22.1877C16.688 20.9974 17.1821 19.9195 17.9456 19.1335C18.7316 18.3475 19.8096 17.8759 20.9998 17.8759C22.1901 17.8759 23.268 18.37 24.054 19.1335C24.84 19.9195 25.3116 20.9974 25.3116 22.1877C25.3341 23.3779 24.84 24.4559 24.054 25.2419Z" fill="white" stroke="white" stroke-width="0.5"/>
<path d="M28.9952 18.8191C29.6029 18.8191 30.0956 18.3264 30.0956 17.7187C30.0956 17.111 29.6029 16.6183 28.9952 16.6183C28.3874 16.6183 27.8948 17.111 27.8948 17.7187C27.8948 18.3264 28.3874 18.8191 28.9952 18.8191Z" fill="white" stroke="white" stroke-width="0.5"/>
</svg>
