<svg width="21" height="21" viewBox="0 0 21 21" fill="none" xmlns="http://www.w3.org/2000/svg">
<path fill-rule="evenodd" clip-rule="evenodd" d="M10.9132 10.0869V5.95667H10.087V10.0869H5.95679V10.9131H10.087V15.0434H10.9132V10.9131H15.0435V10.0869H10.9132Z" fill="black" stroke="black" stroke-width="0.6"/>
<path d="M5.54342 1.82605C3.4904 1.82605 1.82598 3.49047 1.82598 5.54349V15.4567C1.82598 17.5097 3.4904 19.1741 5.54342 19.1741H15.4566C17.5096 19.1741 19.174 17.5097 19.174 15.4567V5.54349C19.174 3.49047 17.5096 1.82605 15.4566 1.82605H5.54342ZM5.54342 1H15.4566C17.9659 1 20 3.03422 20 5.54342V15.4566C20 17.9659 17.9658 20 15.4566 20H5.54342C3.03415 20 1 17.9658 1 15.4566V5.54342C1 3.03415 3.03422 1 5.54342 1Z" fill="black" stroke="black" stroke-width="0.6"/>
</svg>
