<svg width="1024" height="1024" viewBox="0 0 1024 1024" fill="none" xmlns="http://www.w3.org/2000/svg">
<rect width="1024" height="1024" fill="#5557D4"/>
<path d="M512.5 358.852C548.205 358.852 577.149 329.112 577.149 292.426C577.149 255.74 548.205 226 512.5 226C476.795 226 447.851 255.74 447.851 292.426C447.851 329.112 476.795 358.852 512.5 358.852Z" fill="white"/>
<path d="M511.87 715.505C559.918 711.496 591.949 691.45 611.969 651.36C631.988 609.265 627.985 569.175 597.955 531.089C567.926 495.008 521.88 480.976 479.839 493.003C433.794 507.035 403.764 539.107 401.762 587.216C397.758 649.356 401.762 713.5 399.76 775.64C399.76 779.649 399.76 783.658 399.76 791.676C367.729 773.636 343.705 751.586 325.688 721.518C235.599 579.197 319.682 398.791 487.847 378.746C593.951 366.719 694.049 430.863 726.081 535.098C758.112 637.328 710.065 749.581 617.975 795.685C613.971 797.69 603.961 799.694 599.957 795.685C571.929 769.627 543.902 741.563 511.87 711.496V715.505Z" fill="white"/>
</svg>
