<svg width="29" height="27" viewBox="0 0 29 27" fill="none" xmlns="http://www.w3.org/2000/svg">
<path d="M24.1451 4.75056H19.4598V3.76074C19.4589 3.02889 19.1678 2.3271 18.6501 1.80944C18.1325 1.29198 17.4307 1.00089 16.6986 1H12.7881C12.0561 1.00087 11.3543 1.29196 10.8366 1.80944C10.3189 2.32711 10.0279 3.02889 10.027 3.76074V4.75056H5.34169C4.19061 4.75165 3.08707 5.2092 2.27306 6.02295C1.45905 6.83696 1.00106 7.94028 1 9.09135V12.9236C1.00327 13.3905 1.14293 13.8461 1.40177 14.2346C1.66082 14.6231 2.02775 14.9275 2.4574 15.11V23.8179C2.45806 24.3964 2.68814 24.9511 3.09711 25.3603C3.50629 25.7693 4.061 25.9993 4.63946 26H24.8458C25.4249 26 25.9805 25.7704 26.3903 25.3612C26.8004 24.952 27.0311 24.3971 27.0324 23.8179V15.1033C27.4617 14.9223 27.8282 14.6192 28.0867 14.2318C28.3451 13.8444 28.4844 13.3895 28.4866 12.9237V9.09141C28.4855 7.94034 28.0275 6.83701 27.2135 6.023C26.3995 5.20922 25.2959 4.75168 24.1449 4.75062L24.1451 4.75056ZM10.9638 3.76074C10.9645 3.27727 11.1571 2.81365 11.499 2.47179C11.841 2.12994 12.3044 1.93755 12.7881 1.93712H16.6986C17.1823 1.93755 17.6457 2.12994 17.9878 2.47179C18.3296 2.81364 18.5222 3.27727 18.5229 3.76074V4.75056H10.964L10.9638 3.76074ZM24.8462 25.0631H4.63984C4.30976 25.0627 3.99316 24.9315 3.75985 24.6982C3.5265 24.4646 3.39512 24.1482 3.3949 23.8182V15.3272L12.8363 16.7328V18.1453C12.8367 18.549 12.9973 18.9359 13.2827 19.2214C13.5681 19.5068 13.9553 19.6674 14.3588 19.668H15.224C15.6278 19.6674 16.015 19.5068 16.3004 19.2214C16.5858 18.9359 16.7464 18.549 16.7468 18.1453V16.7277L26.0962 15.3272V23.8176C26.0948 24.1481 25.9628 24.4649 25.7286 24.6983C25.4944 24.9316 25.1774 25.0626 24.8466 25.0626L24.8462 25.0631ZM13.7728 16.3173V16.2998V15.0891C13.7732 14.7658 14.0351 14.5039 14.3584 14.5034H15.2237C15.547 14.5041 15.8089 14.766 15.8093 15.0891V18.1451C15.8089 18.4684 15.547 18.7303 15.2237 18.7307H14.3584C14.0353 18.7303 13.7734 18.4684 13.7728 18.1451V16.3173ZM27.5503 12.9236C27.5485 13.2147 27.4588 13.4986 27.293 13.738C27.1271 13.9773 26.8929 14.1609 26.621 14.2649C26.5742 14.2847 26.526 14.3012 26.477 14.3141L26.4626 14.3169C26.4169 14.3289 26.3707 14.3385 26.3238 14.3457L16.7463 15.78V15.0891C16.7459 14.6854 16.5853 14.2984 16.2999 14.013C16.0145 13.7276 15.6273 13.567 15.2236 13.5663H14.3584C13.9549 13.567 13.5677 13.7276 13.2823 14.013C12.9968 14.2984 12.8363 14.6854 12.8358 15.0891V15.7852L3.24886 14.3607L3.16302 14.3457H3.1628C2.82291 14.2927 2.51288 14.1206 2.28844 13.86C2.06381 13.5994 1.93918 13.2676 1.93678 12.9236V9.0913C1.93765 8.1886 2.2965 7.323 2.93491 6.6848C3.57328 6.04643 4.43872 5.68734 5.34158 5.68667H10.4788H10.4953H18.9913H19.0078H24.145C25.0479 5.68732 25.9133 6.04638 26.5517 6.6848C27.1901 7.32294 27.5489 8.1886 27.5498 9.0913L27.5503 12.9236Z" fill="#5557D4" stroke="#5557D4" stroke-width="0.6"/>
</svg>
