<svg width="22" height="22" viewBox="0 0 22 22" fill="none" xmlns="http://www.w3.org/2000/svg">
<path d="M20.5861 15.3934L17.5897 12.3981C17.3234 12.1312 16.9688 11.9843 16.5916 11.9843C16.5916 11.9843 16.5909 11.9843 16.5902 11.9843C16.213 11.9843 15.8584 12.1319 15.5921 12.3981L13.5945 14.395L7.60106 8.40361L9.59864 6.40672C10.1496 5.85595 10.1496 4.95919 9.59794 4.40842L6.60085 1.41308C6.33456 1.14687 5.97996 1 5.60277 1H5.60206C5.22416 1 4.86956 1.14758 4.60327 1.41449L1.60618 4.41054C1.51506 4.50092 0.725351 5.35532 1.10043 7.23288C1.54261 9.44231 3.39327 12.1891 6.60085 15.3956C11.1915 19.9846 14.0869 21 15.7503 21C16.9017 21 17.464 20.5135 17.5897 20.3878L20.5861 17.3925C20.8531 17.1255 21.0007 16.7704 21 16.3926C21 16.0155 20.8531 15.6604 20.5861 15.3934ZM16.5909 19.3886C16.5711 19.4084 14.1829 20.9767 7.59965 14.3964C0.874394 7.6742 2.6078 5.40828 2.60497 5.40898L5.60206 2.41223L8.59914 5.40898L6.10216 7.9051C5.82598 8.18119 5.82598 8.62745 6.10216 8.90354L13.0944 15.8934C13.3706 16.1695 13.817 16.1695 14.0932 15.8934L16.5902 13.3966L19.5873 16.3933L16.5909 19.3886Z" fill="white" stroke="white" stroke-width="0.3"/>
</svg>
