<svg width="21" height="24" viewBox="0 0 21 24" fill="none" xmlns="http://www.w3.org/2000/svg">
<path d="M9.85491 11.4385C11.4419 11.4385 12.8136 10.8726 13.9371 9.76398C15.0607 8.65075 15.6271 7.29168 15.6271 5.71923C15.6271 4.14679 15.056 2.78772 13.9371 1.67449C12.8136 0.561255 11.4419 0 9.85491 0C8.2679 0 6.89623 0.565893 5.77269 1.67449C4.64914 2.78308 4.078 4.14679 4.078 5.71923C4.078 7.29168 4.64914 8.65075 5.768 9.76398C6.89155 10.8772 8.2679 11.4385 9.85491 11.4385ZM6.76515 2.65784C7.62654 1.80436 8.63773 1.39154 9.85491 1.39154C11.0721 1.39154 12.0833 1.80436 12.9447 2.65784C13.806 3.51132 14.2227 4.51323 14.2227 5.71923C14.2227 6.92524 13.806 7.92715 12.9447 8.78062C12.0833 9.6341 11.0721 10.0469 9.85491 10.0469C8.63773 10.0469 7.62654 9.6341 6.76515 8.78062C5.90377 7.92715 5.48712 6.92524 5.48712 5.71923C5.48244 4.51323 5.90377 3.51132 6.76515 2.65784Z" fill="#5557D4"/>
<path d="M19.9523 18.2615C19.9195 17.7977 19.854 17.2921 19.7604 16.7587C19.6621 16.2206 19.5357 15.715 19.3859 15.2512C19.2314 14.7734 19.0207 14.2957 18.7586 13.8457C18.487 13.3726 18.1687 12.9644 17.8129 12.6258C17.4384 12.2733 16.9843 11.9903 16.4553 11.7816C15.931 11.5775 15.3458 11.4708 14.7231 11.4708C14.4797 11.4708 14.241 11.5682 13.7869 11.8651C13.506 12.046 13.1783 12.2547 12.8084 12.4913C12.4948 12.6907 12.0688 12.8763 11.5444 13.0433C11.0342 13.2056 10.5098 13.2891 9.99957 13.2891C9.48461 13.2891 8.96497 13.2056 8.45469 13.0433C7.93037 12.8763 7.50436 12.6907 7.1907 12.4913C6.82555 12.2594 6.49785 12.0506 6.21228 11.8651C5.7535 11.5682 5.51942 11.4708 5.27599 11.4708C4.65336 11.4708 4.06818 11.5775 3.54385 11.7816C3.01485 11.9903 2.56075 12.2733 2.18623 12.6258C1.83044 12.9644 1.51211 13.3726 1.24058 13.8457C0.978422 14.3003 0.767757 14.7734 0.613269 15.2512C0.463463 15.715 0.337064 16.2206 0.238754 16.7587C0.140443 17.2921 0.0749031 17.7977 0.0468144 18.2615C0.0140443 18.7161 0 19.1892 0 19.6624C0 20.9008 0.397923 21.9074 1.17972 22.6449C1.96153 23.3778 2.98676 23.7489 4.23203 23.7489H15.7718C17.0171 23.7489 18.0423 23.3778 18.8194 22.6495C19.6059 21.912 20.0038 20.9055 20.0038 19.667C20.0038 19.1846 19.9851 18.7161 19.9523 18.2615ZM17.8503 21.6384C17.3401 22.1208 16.6613 22.3573 15.7718 22.3573H4.23203C3.34723 22.3573 2.66842 22.1208 2.15346 21.6384C1.65255 21.1652 1.40911 20.5205 1.40911 19.6624C1.40911 19.2171 1.42316 18.7764 1.45125 18.3543C1.47934 17.9415 1.5402 17.4869 1.62914 17.0045C1.71341 16.5268 1.82576 16.0815 1.95684 15.6733C2.08324 15.2836 2.25177 14.8987 2.46712 14.5276C2.66842 14.1751 2.9025 13.8689 3.15998 13.6277C3.39873 13.4004 3.70302 13.2103 4.06349 13.0711C4.39588 12.9412 4.76571 12.8716 5.16832 12.8577C5.21981 12.8856 5.30408 12.9319 5.4492 13.0247C5.73945 13.2103 6.07183 13.4236 6.43699 13.6555C6.85364 13.9153 7.38732 14.1565 8.024 14.3606C8.67472 14.5693 9.34416 14.676 10.0042 14.676C10.6643 14.676 11.3291 14.5693 11.9845 14.3606C12.6212 14.1565 13.1595 13.9199 13.5715 13.6555C13.946 13.419 14.2737 13.2103 14.5593 13.0247C14.6997 12.9319 14.7887 12.8856 14.8402 12.8577C15.2428 12.867 15.6173 12.9412 15.945 13.0711C16.3008 13.2103 16.6051 13.4004 16.8485 13.6277C17.106 13.8736 17.3401 14.1751 17.5414 14.5276C17.752 14.8987 17.9253 15.2836 18.0517 15.6733C18.1827 16.0815 18.2951 16.5268 18.3794 17.0045C18.4683 17.4869 18.5245 17.9415 18.5572 18.3543C18.5853 18.7764 18.6041 19.2124 18.6041 19.6577C18.5994 20.5205 18.3513 21.1652 17.8503 21.6384Z" fill="#5557D4"/>
</svg>
