<svg width="19" height="19" viewBox="0 0 19 19" fill="none" xmlns="http://www.w3.org/2000/svg">
<path d="M18.9993 8.83204V16.0191C18.9993 17.6628 17.6622 19 16.0185 19H2.98096C1.33715 19 0 17.6626 0 16.0191V2.98091C0 1.33722 1.33712 3.81494e-05 2.98081 3.81494e-05H10.1677C10.4958 3.81494e-05 10.7615 0.265738 10.7615 0.593778C10.7615 0.921817 10.4958 1.18752 10.1677 1.18752H2.98081C1.99184 1.18752 1.18745 1.99222 1.18745 2.98091V16.0187C1.18745 17.0077 1.99214 17.8121 2.98081 17.8121H16.0184C17.0073 17.8121 17.8117 17.0074 17.8117 16.0187V8.83166C17.8117 8.50363 18.0774 8.23792 18.4054 8.23792C18.7335 8.23822 18.9993 8.50392 18.9993 8.83192V8.83204ZM9.24244 6.11927L14.8484 0.5132C15.1792 0.18234 15.6204 0 16.0907 0C16.5609 0 17.002 0.182202 17.333 0.5132L18.4863 1.66652C19.1712 2.35148 19.1712 3.46606 18.4863 4.15102L12.8803 9.75748C12.8122 9.82562 12.7312 9.87333 12.6452 9.90136L12.6455 9.90181L8.48235 11.2667C8.42182 11.2867 8.35934 11.2964 8.29762 11.2964C8.14256 11.2964 7.99077 11.2355 7.87776 11.1225C7.71941 10.9643 7.6635 10.7304 7.73343 10.5179L9.09829 6.35467L9.09874 6.35496C9.12677 6.26863 9.17463 6.18797 9.24277 6.11953L9.24244 6.11927ZM9.22678 9.77275L11.3576 9.07404L9.92544 7.64189L9.22678 9.77275ZM10.5019 6.53915L12.4606 8.4979L17.647 3.3117C17.7537 3.20509 17.8124 3.0621 17.8124 2.90911C17.8124 2.75613 17.7538 2.61314 17.647 2.50653L16.4938 1.35321C16.2717 1.1312 15.9105 1.1312 15.6885 1.35321L10.5019 6.53915Z" fill="black"/>
</svg>
