<svg width="74" height="64" viewBox="0 0 74 64" fill="none" xmlns="http://www.w3.org/2000/svg">
<path d="M72.3404 23.5021C71.974 22.8982 71.4901 22.3755 70.9178 21.9655C70.3456 21.5556 69.6969 21.267 69.0109 21.117C68.1814 20.9168 68.1543 20.8996 68.1543 20.0052C68.1543 19.311 68.13 18.6153 68.1543 17.9226C68.3627 12.7175 64.4579 8.96139 59.3937 9.03485C52.8261 9.1299 46.2429 9.03485 39.6681 9.07373C37.5265 9.08813 36.0374 8.1851 35.0366 6.33727C34.5825 5.49617 34.1057 4.66515 33.5803 3.8687C31.9498 1.39437 29.7368 -0.0199507 26.7015 0.000212696C21.9771 0.0275773 17.2527 0.000212894 12.5298 0.00885434C11.8652 -0.0133849 11.201 0.0623044 10.5581 0.233532C8.90196 0.750146 7.45049 1.78243 6.41175 3.1824C5.373 4.58238 4.80031 6.27816 4.77577 8.02668C4.75578 10.946 5.02562 13.8539 5.107 16.7704C5.13699 17.8664 5.14698 18.9696 5.2355 20.0671C5.3026 20.914 5.30975 20.914 4.46738 21.0637C1.75469 21.5448 0.456875 22.8352 0 25.5011V27.3734C0.229865 30.1099 0.648193 32.8262 1.0194 35.5468C1.66284 40.265 2.3115 44.9828 2.9654 49.7001C3.32805 52.3069 3.57933 54.9324 4.10759 57.5119C4.87286 61.2681 8.19519 63.993 11.9444 63.993C28.3005 63.9988 44.6562 63.9988 61.0113 63.993C62.7089 63.993 64.2194 63.4644 65.61 62.5052C67.8373 60.9671 68.7967 58.7203 69.1437 56.1293C70.1731 48.4456 71.2296 40.7648 72.2661 33.0854C72.5788 30.7638 72.99 28.4536 73.0029 26.0988C73.0043 25.1785 72.8401 24.3086 72.3404 23.5021ZM11.706 3.62674C12.2545 3.47189 12.8227 3.40006 13.3921 3.41358C17.6411 3.41358 21.89 3.42511 26.1389 3.41358C28.202 3.40494 29.7283 4.26909 30.7634 6.07371C31.4772 7.31232 32.0983 8.61574 33.0149 9.71896C34.7053 11.7555 36.9112 12.6945 39.5254 12.6959C46.2433 12.6959 52.9613 12.6959 59.6793 12.6959C61.6895 12.6959 63.1986 13.4982 64.1295 15.3258C64.4978 16.0459 64.5778 16.828 64.5849 17.6216C64.5849 18.5793 64.5464 19.5385 64.6006 20.4934C64.6363 21.1069 64.435 21.2323 63.8539 21.2308C55.4256 21.2106 46.9981 21.2063 38.5716 21.2178H36.7156C27.6952 21.2178 18.6743 21.2222 9.6529 21.2308C9.02613 21.2308 8.83339 21.0868 8.80912 20.4257C8.67396 16.6465 8.50358 12.8688 8.29798 9.09245C8.15664 6.32287 9.35879 4.35694 11.706 3.62674ZM69.5949 26.5943C68.6107 33.8156 67.6284 41.0375 66.648 48.2598C66.2873 50.9118 65.918 53.5628 65.5401 56.2128C65.1646 58.8427 63.3242 60.4716 60.6858 60.5163C59.4994 60.5364 58.3129 60.5163 57.1265 60.5163C42.2904 60.5163 27.4553 60.5163 12.6212 60.5163C9.72858 60.5163 7.8868 58.955 7.44848 56.1408C7.33141 55.3861 7.24146 54.6257 7.13724 53.8681C6.38815 48.471 5.63955 43.0745 4.89142 37.6784C4.37743 33.9625 3.86773 30.2458 3.36231 26.528C3.21954 25.4939 3.87772 24.6874 4.89998 24.6039C5.18553 24.5808 5.47107 24.588 5.75662 24.588H67.1363C67.4219 24.588 67.7074 24.5794 67.9929 24.588C69.0766 24.6643 69.7376 25.4968 69.5949 26.5943Z" fill="#5D5FEF"/>
<path d="M36.4714 25.4568C31.9815 25.4587 27.6754 27.2562 24.4971 30.4554C21.3187 33.6546 19.5274 37.9944 19.5157 42.5236C19.4928 51.9299 27.1712 59.6841 36.4857 59.6625C45.8416 59.6395 53.4472 51.9342 53.4229 42.5035C53.4104 37.9771 51.6188 33.6404 48.441 30.4447C45.2631 27.249 40.9586 25.4552 36.4714 25.4568ZM36.4086 56.2693C28.8959 56.2088 22.8023 50.0431 22.8452 42.5395C22.8505 40.7175 23.214 38.9146 23.9148 37.2352C24.6155 35.5559 25.6396 34.0335 26.9276 32.7562C28.2156 31.4788 29.7421 30.4719 31.4185 29.7937C33.095 29.1156 34.8881 28.7796 36.6942 28.8053C44.097 28.8817 50.2034 35.164 50.1149 42.6158C50.0349 50.2304 43.9042 56.3284 36.4015 56.2693H36.4086Z" fill="#5D5FEF"/>
<path d="M30.028 47.4204C29.9938 46.8126 30.3136 46.3777 30.7105 45.9802C31.7099 44.9648 32.7093 43.9336 33.7387 42.9427C34.0871 42.6057 34.0485 42.4156 33.7244 42.0987C32.6665 41.069 31.6342 40.0104 30.5977 38.9561C30.0894 38.4391 29.8838 37.8183 30.1337 37.1184C30.2288 36.8319 30.4031 36.5788 30.6361 36.3889C30.869 36.1991 31.151 36.0804 31.4486 36.0468C32.094 35.9417 32.5908 36.2485 33.0306 36.6849C34.0542 37.7161 35.0836 38.743 36.0831 39.7987C36.3829 40.1155 36.5513 40.1314 36.8626 39.7987C37.8982 38.7108 38.9542 37.6441 40.0307 36.5984C40.9673 35.694 42.2366 35.8783 42.7677 36.9643C43.0847 37.6109 42.9219 38.3843 42.2823 39.0454C41.3542 40.0046 40.4262 40.9753 39.4525 41.8769C38.9214 42.3666 38.8586 42.6633 39.4311 43.1832C40.4533 44.1093 41.3957 45.1261 42.3679 46.1084C42.8805 46.6268 43.0718 47.2605 42.832 47.9461C42.6221 48.5539 42.1424 48.9053 41.5084 49.009C40.8317 49.1213 40.322 48.7843 39.8694 48.3306C38.9271 47.3859 37.9662 46.4583 37.0596 45.4804C36.6313 45.0239 36.3715 44.9446 35.9074 45.4545C34.9794 46.4771 33.9886 47.4435 32.9963 48.4055C32.0554 49.3201 30.8875 49.2222 30.2565 48.2284C30.1133 47.9831 30.0346 47.705 30.028 47.4204Z" fill="#5D5FEF"/>
</svg>
