<svg width="16" height="21" viewBox="0 0 16 21" fill="none" xmlns="http://www.w3.org/2000/svg">
<path d="M11.3468 20.6708H4.52795C3.5335 20.6708 2.71104 19.893 2.65663 18.8999L2.00066 7.01313C1.99427 6.9006 2.0347 6.7906 2.11185 6.7087C2.18944 6.62709 2.29721 6.58057 2.40959 6.58057H13.4645C13.5771 6.58057 13.6847 6.62695 13.7623 6.7087C13.8396 6.7906 13.88 6.9006 13.8735 7.01313L13.2175 18.8999C13.1632 19.8931 12.3412 20.6708 11.3468 20.6708H11.3468ZM2.84294 7.40032L3.47482 18.8545C3.50559 19.4132 3.96818 19.8509 4.52814 19.8509H11.347C11.9065 19.8509 12.369 19.4132 12.3998 18.8543L13.0317 7.40017L2.84294 7.40032Z" fill="#5557D4" stroke="#5557D4" stroke-width="0.3"/>
<path d="M13.8578 7.39908H2.14222C1.51224 7.39908 1 6.88684 1 6.25702V5.18052C1 4.55084 1.51224 4.03845 2.14222 4.03845H13.8578C14.4878 4.03845 15 4.55069 15 5.18052V6.25702C14.9999 6.88684 14.4876 7.39908 13.8576 7.39908H13.8578ZM2.14222 4.85813C1.96458 4.85813 1.81965 5.00276 1.81965 5.18054V6.25704C1.81965 6.43468 1.96458 6.57946 2.14222 6.57946H13.8578C14.0387 6.57946 14.1803 6.4378 14.1803 6.25704V5.18054C14.1803 4.99979 14.0387 4.85813 13.8578 4.85813H2.14222Z" fill="#5557D4" stroke="#5557D4" stroke-width="0.3"/>
<path d="M9.37297 4.85829H6.62717C6.50989 4.85829 6.39826 4.80805 6.32066 4.72035C5.95885 4.3123 5.75952 3.7867 5.75952 3.24025C5.75952 2.00515 6.76452 1 7.99993 1C9.23534 1 10.2403 2.00515 10.2403 3.24041C10.2403 3.78667 10.0414 4.3123 9.68007 4.72035C9.60188 4.8082 9.49025 4.85829 9.37297 4.85829ZM6.82604 4.03881H9.17406C9.33415 3.80514 9.42052 3.52733 9.42052 3.24044C9.42067 2.45692 8.78312 1.81967 7.9999 1.81967C7.21668 1.81967 6.57913 2.45707 6.57913 3.24044C6.57913 3.52748 6.66609 3.80531 6.82604 4.03881H6.82604Z" fill="#5557D4" stroke="#5557D4" stroke-width="0.3"/>
<path d="M9.40984 17.1388C9.1833 17.1388 9 16.9554 9 16.729V11.4098C9 11.1834 9.18328 11 9.40984 11C9.63639 11 9.81968 11.1834 9.81968 11.4098V16.729C9.81968 16.9554 9.63639 17.1389 9.40984 17.1389V17.1388Z" fill="#5557D4" stroke="#5557D4" stroke-width="0.3"/>
<path d="M6.40984 17.1388C6.1833 17.1388 6 16.9554 6 16.729V11.4098C6 11.1834 6.18328 11 6.40984 11C6.63639 11 6.81968 11.1834 6.81968 11.4098V16.729C6.81968 16.9554 6.63639 17.1389 6.40984 17.1389V17.1388Z" fill="#5557D4" stroke="#5557D4" stroke-width="0.3"/>
</svg>
