<svg width="80" height="70" viewBox="0 0 80 70" fill="none" xmlns="http://www.w3.org/2000/svg">
<circle cx="53.086" cy="37.088" r="26.088" fill="#F1F1FF"/>
<path d="M59.7486 10.2513C53.185 3.68765 44.2819 0 34.9999 0C25.7177 0 16.8152 3.68765 10.2513 10.2513C3.68709 16.8155 0 25.718 0 34.9999C0 44.2819 3.68709 53.1847 10.2513 59.7486C16.8149 66.3122 25.718 69.9999 34.9999 69.9999C44.2827 69.9999 53.1847 66.3122 59.7486 59.7486C64.1106 55.4143 67.2492 50.0036 68.847 44.0652C70.4448 38.1272 70.4448 31.8717 68.847 25.9333C67.2492 19.9952 64.1106 14.5845 59.7486 10.2499V10.2513ZM56.9953 56.9958C51.1278 62.6632 43.2691 65.799 35.1119 65.7279C26.9549 65.6574 19.1521 62.3854 13.3827 56.6171C7.61321 50.8487 4.34237 43.0455 4.27182 34.8879C4.20074 26.7303 7.33655 18.8712 13.0039 13.0045C18.8714 7.3371 26.7301 4.20126 34.8873 4.27237C43.0443 4.3429 50.8471 7.61488 56.6165 13.3832C62.386 19.1516 65.6568 26.9548 65.7274 35.1124C65.7985 43.27 62.6627 51.1292 56.9953 56.9958Z" fill="#5557D4"/>
<path d="M28.6333 45.8198L18.9604 35.973L16.5791 38.3954L28.6332 50.6578L53.4212 25.4487L51.0399 23.0262L28.6333 45.8198Z" fill="#5557D4"/>
</svg>
