<svg width="21" height="29" viewBox="0 0 21 29" fill="none" xmlns="http://www.w3.org/2000/svg">
<path d="M5.47539 1.06193V0.665188C5.47539 0.298149 5.76117 0 6.11045 0H14.8895C15.24 0 15.5246 0.298149 15.5246 0.665188V1.06193H18.5729C19.9128 1.06193 21 2.20195 21 3.60417V26.4562C21 27.8597 19.9128 29 18.5729 29H2.42855C1.0873 29 0 27.8597 0 26.4562V3.60417C0 2.20195 1.08723 1.06193 2.42855 1.06193H5.47539ZM5.47539 2.39231H2.42855C1.78952 2.39231 1.27012 2.93633 1.27012 3.60417V26.4562C1.27012 27.1253 1.78951 27.6696 2.42855 27.6696H18.5729C19.2117 27.6696 19.7299 27.1253 19.7299 26.4562V3.60417C19.7299 2.9363 19.2116 2.39231 18.5729 2.39231H15.5246V3.1252C15.5246 3.49224 15.24 3.79039 14.8895 3.79039H6.11045C5.76117 3.79039 5.47539 3.49224 5.47539 3.1252V2.39231ZM15.6378 22.1427H5.36217C5.01175 22.1427 4.72711 21.8446 4.72711 21.4775C4.72711 21.1102 5.01175 20.8123 5.36217 20.8123H15.6378C15.9882 20.8123 16.2729 21.1102 16.2729 21.4775C16.2729 21.8446 15.9882 22.1427 15.6378 22.1427ZM15.6378 19.2198H5.36217C5.01175 19.2198 4.72711 18.9219 4.72711 18.5546C4.72711 18.1875 5.01175 17.8894 5.36217 17.8894H15.6378C15.9882 17.8894 16.2729 18.1875 16.2729 18.5546C16.2729 18.9219 15.9882 19.2198 15.6378 19.2198ZM9.12449 10.3784C8.74743 9.99923 8.51098 9.46444 8.51098 8.87527C8.51098 7.72697 9.40406 6.79183 10.5001 6.79183C11.5961 6.79183 12.4892 7.72697 12.4892 8.87527C12.4892 9.46444 12.2541 9.99925 11.8756 10.3784C13.2779 10.9557 14.2736 12.3885 14.2736 14.0596C14.2736 14.4269 13.9892 14.7236 13.6385 14.7236H7.36271C7.01087 14.7236 6.72765 14.4269 6.72765 14.0596C6.72765 12.3886 7.72219 10.9558 9.12441 10.3784H9.12449ZM8.07922 13.3944H12.9222C12.6404 12.2689 11.6611 11.4374 10.5001 11.4374C9.33918 11.4374 8.36133 12.2689 8.07929 13.3944H8.07922ZM10.5001 8.12213C10.1037 8.12213 9.7811 8.46007 9.7811 8.87521C9.7811 9.29155 10.1037 9.62949 10.5001 9.62949C10.8964 9.62949 11.2191 9.29155 11.2191 8.87521C11.2191 8.46007 10.8964 8.12213 10.5001 8.12213ZM6.74559 2.46004H14.2531V1.33044H6.74559V2.46004Z" fill="black"/>
</svg>
