<svg width="31" height="31" viewBox="0 0 31 31" fill="none" xmlns="http://www.w3.org/2000/svg">
<path d="M3.90435 0C2.36731 0 1.08932 1.279 1.08932 2.81724V20.4252C1.08416 20.7972 1.42129 21.1395 1.79311 21.1395C2.16489 21.1395 2.50206 20.7972 2.4969 20.4252V2.81724C2.4969 2.09772 3.18565 1.40846 3.90442 1.40846H28.1848C28.9036 1.40846 29.5923 2.09772 29.5923 2.81724V27.1159C29.5923 27.8351 28.9036 28.5247 28.1848 28.5247H10.59C10.2183 28.5192 9.87619 28.8569 9.87619 29.2289C9.87619 29.6009 10.2182 29.9385 10.59 29.9331H28.1848C29.7219 29.9331 30.9998 28.6539 30.9998 27.1159V2.81724C30.9998 1.279 29.7219 0 28.1848 0H3.90435ZM15.5168 6.69129C13.3873 6.69129 11.6461 8.43397 11.6461 10.5649C11.6461 12.6961 13.3876 14.4385 15.5168 14.4385C17.6463 14.4385 19.3874 12.6958 19.3874 10.5649C19.3874 8.43372 17.6459 6.69129 15.5168 6.69129ZM15.5168 8.10007C16.8855 8.10007 17.9799 9.19526 17.9799 10.5652C17.9799 11.9349 16.8855 13.0304 15.5168 13.0304C14.1481 13.0304 13.0536 11.9349 13.0536 10.5652C13.0536 9.19558 14.1481 8.10007 15.5168 8.10007ZM13.0536 15.8476C10.0007 15.8476 7.42331 17.9957 7.42331 20.7778V22.8908C7.42331 23.2596 7.75847 23.595 8.1271 23.595H22.9068C23.2754 23.595 23.6106 23.2594 23.6106 22.8908V20.7778C23.6106 17.9957 21.0334 15.8476 17.9803 15.8476H13.0536ZM13.0536 17.2563H17.9802C20.3856 17.2563 22.2027 18.8779 22.2027 20.7778V22.1866H8.83082V20.7778C8.83082 18.8776 10.648 17.2563 13.0534 17.2563H13.0536ZM4.1795 22.5271C3.83377 22.5652 3.54529 22.8945 3.55266 23.2425V26.0597H0.671508C0.302918 26.0769 -0.0167443 26.4283 0.000680615 26.7971C0.0178816 27.166 0.369026 27.4859 0.737622 27.4685H3.55266V30.2857C3.5475 30.6577 3.88463 31 4.25645 31C4.62824 31 4.9654 30.6577 4.96024 30.2857V27.4685H7.77528C8.14706 27.4739 8.48913 27.1362 8.48913 26.7642C8.48913 26.392 8.14708 26.0546 7.77528 26.06H4.96024V23.2428C4.96884 22.8432 4.57641 22.4837 4.17958 22.5275L4.1795 22.5271Z" fill="black"/>
</svg>
