<svg width="32" height="32" viewBox="0 0 32 32" fill="none" xmlns="http://www.w3.org/2000/svg">
<rect width="32" height="32" rx="16" fill="#6A90FF"/>
<path d="M18.9748 24.5963H12.9136C12.0296 24.5963 11.2985 23.9049 11.2502 23.0222L10.6671 12.4562C10.6614 12.3561 10.6973 12.2584 10.7659 12.1856C10.8349 12.113 10.9307 12.0717 11.0306 12.0717H20.8572C20.9572 12.0717 21.0529 12.1129 21.1219 12.1856C21.1906 12.2584 21.2265 12.3561 21.2207 12.4562L20.6376 23.0222C20.5894 23.905 19.8587 24.5963 18.9748 24.5963H18.9748ZM11.4158 12.8003L11.9775 22.9818C12.0048 23.4785 12.416 23.8675 12.9137 23.8675H18.9749C19.4723 23.8675 19.8834 23.4785 19.9108 22.9817L20.4725 12.8002L11.4158 12.8003Z" fill="white" stroke="white" stroke-width="0.3"/>
<path d="M21.207 12.7992H10.7931C10.2332 12.7992 9.77783 12.3439 9.77783 11.7841V10.8272C9.77783 10.2675 10.2332 9.81201 10.7931 9.81201H21.207C21.767 9.81201 22.2223 10.2673 22.2223 10.8272V11.7841C22.2221 12.3439 21.7668 12.7992 21.2068 12.7992H21.207ZM10.7931 10.5406C10.6352 10.5406 10.5064 10.6692 10.5064 10.8272V11.7841C10.5064 11.942 10.6352 12.0707 10.7931 12.0707H21.207C21.3678 12.0707 21.4937 11.9448 21.4937 11.7841V10.8272C21.4937 10.6665 21.3678 10.5406 21.207 10.5406H10.7931Z" fill="white" stroke="white" stroke-width="0.3"/>
<path d="M17.2207 10.5407H14.78C14.6758 10.5407 14.5766 10.496 14.5076 10.4181C14.186 10.0554 14.0088 9.58815 14.0088 9.10242C14.0088 8.00455 14.9021 7.11108 16.0003 7.11108C17.0984 7.11108 17.9917 8.00455 17.9917 9.10256C17.9917 9.58812 17.8149 10.0554 17.4937 10.4181C17.4242 10.4962 17.325 10.5407 17.2207 10.5407ZM14.9568 9.81225H17.0439C17.1862 9.60454 17.263 9.3576 17.263 9.10259C17.2631 8.40612 16.6964 7.83968 16.0002 7.83968C15.304 7.83968 14.7373 8.40626 14.7373 9.10259C14.7373 9.35774 14.8146 9.6047 14.9568 9.81225H14.9568Z" fill="white" stroke="white" stroke-width="0.3"/>
<path d="M17.253 21.4567C17.0516 21.4567 16.8887 21.2937 16.8887 21.0924V16.3643C16.8887 16.1631 17.0516 16 17.253 16C17.4544 16 17.6173 16.163 17.6173 16.3643V21.0924C17.6173 21.2937 17.4544 21.4568 17.253 21.4568V21.4567Z" fill="white" stroke="white" stroke-width="0.3"/>
<path d="M14.5865 21.4567C14.3851 21.4567 14.2222 21.2937 14.2222 21.0924V16.3643C14.2222 16.1631 14.3851 16 14.5865 16C14.7879 16 14.9508 16.163 14.9508 16.3643V21.0924C14.9508 21.2937 14.7879 21.4568 14.5865 21.4568V21.4567Z" fill="white" stroke="white" stroke-width="0.3"/>
</svg>
