<svg width="20" height="20" viewBox="0 0 20 20" fill="none" xmlns="http://www.w3.org/2000/svg">
<path d="M0.649073 0.976616C0.459768 0.974174 0.279072 1.05557 0.155458 1.19896C0.0318427 1.34235 -0.022038 1.53307 0.00826906 1.71995L2.72848 18.2335C2.79844 18.6506 3.15781 18.9573 3.58075 18.9608H16.6307C16.9482 18.9649 17.2208 18.7359 17.2715 18.4225L19.9917 1.72315C20.022 1.53627 19.9682 1.34556 19.8445 1.20216C19.7209 1.05877 19.5402 0.977378 19.3509 0.97982L0.649073 0.976616ZM12.1034 12.9116H7.93821L6.8104 7.01939H13.1127L12.1034 12.9116Z" fill="#2684FF"/>
<path d="M19.1104 7.01099H13.1012L12.0927 12.8985H7.93085L3.0166 18.7315C3.17236 18.8662 3.37095 18.9411 3.57686 18.9428H16.6196C16.9368 18.9469 17.2092 18.7181 17.2599 18.405L19.1104 7.01099Z" fill="url(#paint0_linear_1130_345)"/>
<defs>
<linearGradient id="paint0_linear_1130_345" x1="20.4998" y1="8.65974" x2="13.5582" y2="18.5159" gradientUnits="userSpaceOnUse">
<stop offset="0.18" stop-color="#0052CC"/>
<stop offset="1" stop-color="#2684FF"/>
</linearGradient>
</defs>
</svg>
