<svg width="23" height="22" viewBox="0 0 23 22" fill="none" xmlns="http://www.w3.org/2000/svg">
<path d="M1.49296 4.27666H4.54534C4.77969 5.58909 5.94881 6.5918 7.35461 6.5918C8.7604 6.5918 9.92952 5.59125 10.1639 4.27666H21.5071C21.779 4.27666 22 4.06011 22 3.79373C22 3.52736 21.779 3.3108 21.5071 3.3108H10.1616C9.92742 2.00055 8.75815 1 7.35236 1C5.94671 1 4.77966 2.00055 4.54531 3.31297H1.49292C1.22108 3.31297 1.00004 3.52952 1.00004 3.7959C1.00004 4.06227 1.22106 4.27666 1.49292 4.27666H1.49296ZM7.35243 1.9637C8.38241 1.9637 9.22239 2.78444 9.22239 3.7959C9.22239 4.80508 8.38473 5.6281 7.35243 5.6281C6.32029 5.6281 5.48248 4.80736 5.48248 3.7959C5.48263 2.78459 6.32246 1.9637 7.35243 1.9637ZM21.5049 10.5161H19.3366C19.1022 9.20371 17.9331 8.201 16.5273 8.201C15.1215 8.201 13.9524 9.20371 13.718 10.5161H1.49288C1.22104 10.5161 1 10.7327 1 10.9991C1 11.2654 1.22102 11.482 1.49288 11.482H13.7203C13.9546 12.7944 15.1237 13.7971 16.5295 13.7971C17.9353 13.7971 19.1045 12.7966 19.3388 11.482H21.5071C21.779 11.482 22 11.2654 22 10.9991C22 10.7327 21.7768 10.5161 21.5049 10.5161H21.5049ZM16.5295 12.8313C15.4996 12.8313 14.6596 12.0105 14.6596 10.9991C14.6596 9.98775 15.4972 9.16686 16.5295 9.16686C17.5617 9.16686 18.3995 9.98761 18.3995 10.9991C18.3995 12.0082 17.5595 12.8313 16.5295 12.8313ZM21.5049 17.719H10.1616C9.92727 16.4066 8.75815 15.4039 7.35236 15.4039C5.94671 15.4039 4.77966 16.4066 4.54531 17.719H1.49292C1.22108 17.719 1.00004 17.9356 1.00004 18.2019C1.00004 18.4683 1.22106 18.6849 1.49292 18.6849H4.54531C4.77966 19.9973 5.94878 21 7.35457 21C8.76037 21 9.92949 19.9973 10.1638 18.6849H21.5071C21.7789 18.6849 22 18.4683 22 18.2019C22 17.9356 21.7767 17.719 21.5049 17.719H21.5049ZM7.35243 20.0341C6.32246 20.0341 5.48248 19.2134 5.48248 18.2019C5.48248 17.1928 6.32014 16.3697 7.35243 16.3697C8.38458 16.3697 9.22239 17.1905 9.22239 18.2019C9.22239 19.2132 8.38458 20.0341 7.35243 20.0341Z" fill="black" stroke="black" stroke-width="0.5"/>
</svg>
