<svg width="20" height="20" viewBox="0 0 20 20" fill="none" xmlns="http://www.w3.org/2000/svg">
<path d="M19.9983 10.1865C19.9779 10.3708 19.9259 10.5463 19.8169 10.6965C19.7277 10.8191 19.6302 10.9374 19.5248 11.0463C19.249 11.3307 18.9679 11.6098 18.6879 11.8894C16.6177 13.9562 11.4464 19.1099 10.9304 19.6189C10.7904 19.7571 10.6294 19.8624 10.4401 19.9195C10.3557 19.9446 10.2676 19.9587 10.1837 19.9776C10.2073 19.9844 10.2335 19.9917 10.2597 19.9996H9.80194C9.82711 19.9938 9.85228 19.9875 9.88741 19.9792C9.87535 19.9713 9.8701 19.9661 9.86434 19.9645C9.85175 19.9614 9.83864 19.9587 9.82606 19.9577C9.56912 19.9388 9.3515 19.831 9.17059 19.6545C8.65094 19.1487 0.902851 11.4171 0.398931 10.9107C0.166635 10.6772 0.0208603 10.3986 0.00250735 10.0682C-0.0195162 9.67859 0.103186 9.33927 0.384773 9.05807C2.37004 7.07661 4.35373 5.0941 6.33795 3.11159C6.34791 3.10164 6.36049 3.09431 6.3757 3.08226C6.4423 3.14981 7.8948 4.60397 8.5597 5.26323C8.62001 5.32293 8.62787 5.37267 8.6027 5.45174C8.56442 5.57061 8.52772 5.69524 8.52142 5.81882C8.48944 6.45295 8.74481 6.9457 9.29644 7.26302C9.43593 7.34314 9.47316 7.42169 9.47263 7.5725C9.46739 9.30261 9.46949 11.0327 9.47106 12.7628C9.47106 12.8189 9.45847 12.8498 9.40289 12.878C9.14962 13.0053 8.92834 13.1797 8.77365 13.4153C8.55184 13.7541 8.46741 14.129 8.53978 14.5354C8.65671 15.1868 9.19681 15.7078 9.85228 15.7827C10.3614 15.8408 10.8014 15.691 11.1632 15.3224C11.611 14.8663 11.7206 14.1458 11.4301 13.5766C11.288 13.2975 11.0625 13.1001 10.8093 12.9294C10.76 12.8964 10.7358 12.8602 10.7364 12.8026C10.7364 12.722 10.7343 12.6419 10.7337 12.5612C10.7337 10.8814 10.7337 9.20102 10.7337 7.52118C10.7337 7.50495 10.7353 7.48819 10.7369 7.45677C10.7636 7.47929 10.782 7.4929 10.7977 7.50861C10.868 7.58035 10.9361 7.65366 11.0069 7.72435C11.407 8.12494 11.8071 8.525 12.2077 8.92506C12.3866 9.10363 12.5654 9.28166 12.7442 9.46023C12.773 9.48903 12.805 9.51521 12.784 9.56653C12.676 9.83201 12.6613 10.1059 12.7122 10.3855C12.8674 11.2312 13.687 11.7543 14.4966 11.6087C14.8574 11.5438 15.1589 11.3694 15.3943 11.0914C15.6786 10.7562 15.8028 10.3635 15.7504 9.92836C15.6948 9.47018 15.484 9.09944 15.0865 8.84233C14.8139 8.66586 14.5202 8.56375 14.1956 8.57213C14.0603 8.5758 13.9251 8.60878 13.7913 8.63759C13.7347 8.64963 13.6964 8.64439 13.6597 8.59988C13.622 8.55485 13.58 8.51348 13.5386 8.47211C12.88 7.81285 12.2209 7.15411 11.5612 6.49589C11.5224 6.45766 11.5103 6.42153 11.5261 6.36864C11.6 6.12044 11.6136 5.86909 11.557 5.61512C11.481 5.27318 11.321 4.97523 11.0394 4.76315C10.621 4.4474 10.1548 4.31492 9.63414 4.46887C9.58275 4.48405 9.54814 4.47044 9.51196 4.43483C8.78256 3.70435 8.05264 2.97439 7.32114 2.24653C7.27447 2.19992 7.27238 2.17636 7.32009 2.12871C7.91368 1.53961 8.5015 0.944754 9.09771 0.358798C9.42911 0.0330927 9.83497 -0.0606393 10.2844 0.0315217C10.5581 0.0875515 10.7752 0.246215 10.9697 0.439963C13.0724 2.54082 18.8038 8.2637 19.5662 9.0256C19.7891 9.24868 19.9632 9.49845 19.9957 9.82468C19.9978 9.84301 20.002 10.1514 19.9983 10.1844V10.1865Z" fill="#F05133"/>
</svg>
