<svg width="19" height="16" viewBox="0 0 19 16" fill="none" xmlns="http://www.w3.org/2000/svg">
<path d="M18.2578 9.18519C18.6677 9.18519 19 8.85356 19 8.44444V2.96296C19 1.32919 17.6682 0 16.0312 0H2.96875C1.33178 0 0 1.32919 0 2.96296V13.037C0 14.6708 1.33178 16 2.96875 16H16.0312C17.6682 16 19 14.6708 19 13.037V12.8889C19 12.6646 18.8982 12.4524 18.7232 12.3118L13.1043 7.79826L17.5156 5.06056V8.44444C17.5156 8.85356 17.8479 9.18519 18.2578 9.18519ZM1.48438 5.06056L5.89453 7.79756L1.48438 11.3304V5.06056ZM17.5027 13.2331C17.4063 13.9577 16.7832 14.5185 16.0312 14.5185H2.96875C2.21265 14.5185 1.58676 13.9514 1.49577 13.2209L7.23076 8.62681L7.93231 9.06222C8.89927 9.66241 10.1007 9.66233 11.0677 9.06222L11.7687 8.62715L17.5027 13.2331ZM10.2839 7.80415C9.80036 8.10422 9.19967 8.10422 8.71618 7.80415L1.50519 3.32893C1.49829 3.32463 1.49135 3.32052 1.48438 3.31648V2.96296C1.48438 2.14607 2.15027 1.48148 2.96875 1.48148H16.0312C16.8497 1.48148 17.5156 2.14607 17.5156 2.96296V3.316L10.2839 7.80415Z" fill="white"/>
</svg>
