<svg width="20" height="20" viewBox="0 0 20 20" fill="none" xmlns="http://www.w3.org/2000/svg">
<g clip-path="url(#clip0_1130_338)">
<path d="M20 3.36763V16.6511C20 16.6511 19.9626 16.7259 19.9626 16.7633C19.6819 18.6529 18.1478 20 16.2395 20.0187C12.0861 20.0187 7.91394 20.0187 3.76052 20.0187C3.21796 20.0187 2.71282 19.9439 2.22638 19.7007C0.80449 18.971 0 17.8297 0 16.2021C0 13.7138 0 11.2254 0 8.73714C0 7.09074 0 5.42563 0 3.77923C0 2.11413 1.01029 0.710945 2.58185 0.187091C2.84378 0.0935454 3.10571 0.0561272 3.36763 0C7.78297 0 12.217 0 16.6511 0C16.6885 0 16.7259 0.0374181 16.7633 0.0374181C18.2975 0.243218 19.5323 1.34705 19.9065 2.86249C19.9439 3.03087 19.9813 3.19925 20.0187 3.34892L20 3.36763ZM13.2647 16.6698C13.2647 16.6698 13.4331 16.6698 13.5267 16.6698C14.275 16.6324 14.9486 16.3704 15.5847 15.9963C16.0711 15.7156 16.4266 15.304 16.5388 14.724C16.5949 14.4808 16.6324 14.2376 16.6698 13.9944C16.7072 13.7512 16.6324 13.5641 16.4079 13.4331C15.5098 12.928 14.6305 12.4041 13.7512 11.8803C13.5454 11.768 13.3396 11.7867 13.1712 11.9364C13.0402 12.0486 12.9093 12.1796 12.797 12.3106C12.5351 12.6099 12.2732 12.928 11.9925 13.2273C11.6932 13.5641 11.5061 13.6015 11.1132 13.3957C10.3274 12.9654 9.56034 12.479 8.8681 11.8803C7.91394 11.0384 7.2217 10.0281 6.62301 8.92423C6.56688 8.83068 6.54818 8.73714 6.51076 8.64359C6.45463 8.49392 6.47334 8.34425 6.6043 8.23199C6.8101 8.02619 7.0159 7.82039 7.24041 7.6333C7.50234 7.39008 7.78298 7.18428 8.00748 6.92236C8.23199 6.67914 8.23199 6.49205 8.06361 6.21141C7.89523 5.93078 7.72685 5.66885 7.57718 5.38821C7.27783 4.86436 6.95978 4.35921 6.69785 3.81665C6.49205 3.40505 6.1927 3.27409 5.76239 3.36763C5.18241 3.47989 4.60243 3.59214 4.24696 4.116C3.98503 4.49018 3.77923 4.90178 3.59214 5.31338C3.34892 5.89336 3.27409 6.49205 3.36763 7.12816C3.51731 8.02619 3.87278 8.84939 4.22825 9.67259C4.80823 11.0009 5.70627 12.1422 6.71656 13.1525C7.93265 14.3686 9.26099 15.3976 10.8887 16.015C11.6558 16.2956 12.4041 16.6511 13.246 16.6885L13.2647 16.6698Z" fill="#6CCBDF"/>
</g>
<defs>
<clipPath id="clip0_1130_338">
<rect width="20" height="20" fill="white"/>
</clipPath>
</defs>
</svg>
