<svg width="80" height="80" viewBox="0 0 80 80" fill="none" xmlns="http://www.w3.org/2000/svg">
<circle cx="48.086" cy="41.088" r="26.088" fill="#F1F1FF"/>
<path d="M57.3333 70V63.3333C57.3333 59.7971 55.9285 56.4057 53.428 53.9052C50.9275 51.4048 47.5361 50 43.9999 50H20.6666C17.1304 50 13.739 51.4048 11.2385 53.9052C8.73801 56.4057 7.33325 59.7971 7.33325 63.3333V70" stroke="#5557D4" stroke-width="4.5" stroke-linecap="round" stroke-linejoin="round"/>
<path d="M32.3333 36.6667C39.6971 36.6667 45.6667 30.6971 45.6667 23.3333C45.6667 15.9695 39.6971 10 32.3333 10C24.9695 10 19 15.9695 19 23.3333C19 30.6971 24.9695 36.6667 32.3333 36.6667Z" stroke="#5557D4" stroke-width="4.5" stroke-linecap="round" stroke-linejoin="round"/>
<path d="M56.6667 36.6667L63.3334 43.3333L76.6667 30" stroke="#5557D4" stroke-width="4.5" stroke-linecap="round" stroke-linejoin="round"/>
</svg>
