<svg width="19" height="19" viewBox="0 0 19 19" fill="none" xmlns="http://www.w3.org/2000/svg">
<path d="M8.02587 0C3.60039 0 0 3.60039 0 8.02587C0 12.4514 3.60039 16.0517 8.02587 16.0517C12.4514 16.0517 16.0517 12.4514 16.0517 8.02587C16.0517 3.60039 12.4513 0 8.02587 0ZM8.02587 14.6478C4.37446 14.6478 1.40396 11.6773 1.40396 8.02587C1.40396 4.37446 4.37446 1.40396 8.02587 1.40396C11.6771 1.40396 14.6478 4.37446 14.6478 8.02587C14.6478 11.6773 11.6773 14.6478 8.02587 14.6478Z" fill="black"/>
<path d="M18.7944 17.8018L13.6934 12.7008C13.4192 12.4266 12.975 12.4266 12.7008 12.7008C12.4266 12.9748 12.4266 13.4194 12.7008 13.6934L17.8018 18.7944C17.9389 18.9315 18.1184 19 18.2981 19C18.4778 19 18.6573 18.9315 18.7944 18.7944C19.0686 18.5204 19.0686 18.0758 18.7944 17.8018Z" fill="black"/>
</svg>
