<svg width="20" height="15" viewBox="0 0 20 15" fill="none" xmlns="http://www.w3.org/2000/svg">
<g clip-path="url(#clip0_1130_335)">
<path d="M19.9996 12.3353C19.9831 12.4191 19.9502 12.5029 19.9337 12.6035C19.6204 14.0616 18.4498 14.9834 16.9329 14.9834C12.8273 14.9834 8.72181 14.9834 4.61629 14.9834C3.94028 14.9834 3.28075 15.0001 2.60474 14.9499C1.20326 14.8325 0.0326089 13.6091 0.0161209 12.1845C-0.0168552 9.5532 0.0161209 6.90516 0.0161209 4.24036C0.0985611 4.29064 0.164513 4.32416 0.213977 4.35767C3.2148 6.21801 6.23211 8.07834 9.21645 9.93868C9.76056 10.2739 10.2387 10.2739 10.7828 9.93868C13.7836 8.06158 16.801 6.20125 19.8018 4.34091C19.8677 4.3074 19.9337 4.27388 19.9831 4.24036V12.3353H19.9996Z" fill="#ED5525"/>
<path d="M0.0985193 2.34637C0.296376 1.18994 1.40108 0.150838 2.55524 0.0335195C2.76958 0 2.98393 0 3.19827 0C7.76546 0 12.3491 0 16.9163 0C18.2189 0 19.1587 0.603352 19.7358 1.81006C19.9666 2.31285 19.9666 2.32961 19.5049 2.61452C16.4052 4.5419 13.289 6.46927 10.1892 8.39665C10.0573 8.48045 9.95837 8.49721 9.82647 8.39665C6.62779 6.41899 3.44559 4.44134 0.246912 2.44693C0.197448 2.41341 0.131495 2.37989 0.0820312 2.34637H0.0985193Z" fill="#ED5525"/>
</g>
<defs>
<clipPath id="clip0_1130_335">
<rect width="20" height="15" fill="white"/>
</clipPath>
</defs>
</svg>
