<svg width="23" height="23" viewBox="0 0 23 23" fill="none" xmlns="http://www.w3.org/2000/svg">
<path d="M19.2238 19.8829H8.45911C8.09512 19.8829 7.80005 19.5878 7.80005 19.2238V8.45911C7.80005 8.09512 8.09512 7.80005 8.45911 7.80005H19.2238C19.5878 7.80005 19.8829 8.09512 19.8829 8.45911V19.2238C19.8829 19.5878 19.5878 19.8829 19.2238 19.8829Z" stroke="#5557D4" stroke-width="1.5" stroke-linecap="round" stroke-linejoin="round"/>
<path d="M14.2421 16.9848C14.0176 16.9848 13.8359 16.8209 13.8359 16.6186V11.8662C13.8359 11.6639 14.0176 11.5 14.2421 11.5C14.4666 11.5 14.6483 11.6639 14.6483 11.8662V16.6186C14.6483 16.8209 14.4666 16.9849 14.2421 16.9849V16.9848Z" fill="#5557D4" stroke="#5557D4" stroke-width="0.7"/>
<path d="M11.5001 14.2424C11.5001 14.0178 11.664 13.8362 11.8663 13.8362L16.6187 13.8362C16.821 13.8362 16.9849 14.0178 16.9849 14.2424C16.9849 14.4669 16.821 14.6485 16.6187 14.6485L11.8663 14.6485C11.664 14.6485 11.5 14.4669 11.5 14.2424L11.5001 14.2424Z" fill="#5557D4" stroke="#5557D4" stroke-width="0.7"/>
<path d="M14.3328 7.74219V2.90906C14.3328 2.54507 14.0378 2.25 13.6738 2.25H2.90906C2.54507 2.25 2.25 2.54507 2.25 2.90906V13.6738C2.25 14.0378 2.54507 14.3328 2.90906 14.3328H7.74219" stroke="#5557D4" stroke-width="1.5" stroke-linecap="round" stroke-linejoin="round"/>
</svg>
