<svg width="20" height="20" viewBox="0 0 20 20" fill="none" xmlns="http://www.w3.org/2000/svg">
<g clip-path="url(#clip0_1130_340)">
<path d="M16.5392 0H3.46076C1.54944 0 0 1.54944 0 3.46076V16.5392C0 18.4506 1.54944 20 3.46076 20H16.5392C18.4506 20 20 18.4506 20 16.5392V3.46076C20 1.54944 18.4506 0 16.5392 0Z" fill="#0178B5"/>
<path d="M13.0179 7.84717C11.6899 7.84717 11.0661 8.33007 10.6436 8.97393V8.35019C10.6436 8.14898 10.4826 7.98801 10.2814 7.98801H8.47057C8.26936 7.98801 8.1084 8.14898 8.1084 8.35019V15.6138C8.1084 15.815 8.26936 15.9759 8.47057 15.9759H10.2412C10.4424 15.9759 10.6034 15.815 10.6034 15.6138V11.7305C10.6436 11.1872 10.8851 10.0403 12.0118 10.0403C13.4806 10.0403 13.3197 11.7506 13.3197 12.2536V15.6339C13.3197 15.8351 13.4806 15.9961 13.6818 15.9961H15.5128C15.714 15.9961 15.875 15.8351 15.875 15.6339V12.153C15.875 10.6439 15.8951 7.88741 12.9776 7.88741L13.0179 7.84717Z" fill="white"/>
<path d="M5.69423 7.30375C6.59433 7.30375 7.32401 6.57407 7.32401 5.67397C7.32401 4.77387 6.59433 4.04419 5.69423 4.04419C4.79413 4.04419 4.06445 4.77387 4.06445 5.67397C4.06445 6.57407 4.79413 7.30375 5.69423 7.30375Z" fill="white"/>
<path d="M6.55897 7.96777H4.8487C4.62646 7.96777 4.44629 8.14794 4.44629 8.37019V15.5734C4.44629 15.7957 4.62646 15.9758 4.8487 15.9758H6.55897C6.78121 15.9758 6.96138 15.7957 6.96138 15.5734V8.37019C6.96138 8.14794 6.78121 7.96777 6.55897 7.96777Z" fill="white"/>
</g>
<defs>
<clipPath id="clip0_1130_340">
<rect width="20" height="20" fill="white"/>
</clipPath>
</defs>
</svg>
